<?xml version="1.0" encoding="UTF-8"?>
<svg version="1.1" xmlns="http://www.w3.org/2000/svg" width="1216" height="832">
<path d="M0 0 C401.28 0 802.56 0 1216 0 C1216 274.56 1216 549.12 1216 832 C814.72 832 413.44 832 0 832 C0 557.44 0 282.88 0 0 Z " fill="#000B0E" transform="translate(0,0)"/>
<path d="M0 0 C3.0625 2.4375 3.0625 2.4375 5 5 C5.70125 5.78375 6.4025 6.5675 7.125 7.375 C12.67561319 15.14585846 13.16320034 22.56091529 12 32 C9.10959867 40.9991928 4.53064226 46.85282117 -3.57421875 51.46484375 C-11.3598495 55.38480568 -17.34654857 56.25646287 -25.6875 53.75 C-33.7522362 50.75372648 -42.66272967 44.50140952 -46.6875 36.75 C-48.91500892 30.53396727 -48.42639061 23.50245686 -48 17 C-47.67 16.67 -47.34 16.34 -47 16 C-46.6596875 14.7315625 -46.6596875 14.7315625 -46.3125 13.4375 C-44.08253322 7.59711082 -41.15747597 3.13757824 -35.5625 0.1875 C-34.386875 -0.204375 -33.21125 -0.59625 -32 -1 C-30.948125 -1.556875 -29.89625 -2.11375 -28.8125 -2.6875 C-19.59701128 -6.54610107 -8.77714527 -3.78621953 0 0 Z " fill="#080909" transform="translate(468,392)"/>
<path d="M0 0 C3.63 0 7.26 0 11 0 C11.33 12.21 11.66 24.42 12 37 C17.31254077 30.50689461 22.56370724 24.05114621 27.625 17.375 C28.18493652 16.64933838 28.74487305 15.92367676 29.32177734 15.17602539 C31.65987626 12.13894578 33.91597368 9.1298141 36 5.91015625 C37.625 3.4375 37.625 3.4375 41 0 C44.63 0 48.26 0 52 0 C52.33 12.54 52.66 25.08 53 38 C55.10375 35.298125 57.2075 32.59625 59.375 29.8125 C60.06706543 28.92369141 60.75913086 28.03488281 61.47216797 27.11914062 C64.7505395 22.9047375 68.01908011 18.68364491 71.25561523 14.43701172 C72.46506122 12.85811166 73.69129099 11.29211246 74.91796875 9.7265625 C76.975724 7.1144975 76.975724 7.1144975 78.48828125 4.6484375 C79.90385747 2.55221548 80.82237335 1.29828904 83 0 C87.39583188 -0.55937356 91.59621933 -0.41162935 96 0 C94.20758676 4.14756086 91.4648172 7.55174775 88.75 11.125 C88.22059814 11.82657227 87.69119629 12.52814453 87.14575195 13.25097656 C82.63804761 19.20511923 78.07258733 25.11579946 73.42919922 30.96484375 C70.18619208 35.07472311 67.12257636 39.24159662 64.19921875 43.5859375 C63.56024658 44.50922852 62.92127441 45.43251953 62.26293945 46.38378906 C61.0341514 48.1679391 59.83658845 49.97413778 58.67651367 51.80371094 C56.9609375 54.2578125 56.9609375 54.2578125 53 58 C49.04 58 45.08 58 41 58 C40.67 45.79 40.34 33.58 40 21 C33.2090897 29.4077937 26.52286016 37.85161915 20.09863281 46.54296875 C19.1773365 47.78585565 18.24521703 49.02080968 17.30126953 50.24658203 C15.97861508 51.96729813 15.97861508 51.96729813 14.92919922 53.79638672 C13.83984375 55.46484375 13.83984375 55.46484375 11 58 C7.37 58 3.74 58 0 58 C0 38.86 0 19.72 0 0 Z " fill="#F9F9F9" transform="translate(326,388)"/>
<path d="M0 0 C4.98204139 4.13403434 9.56659962 8.50475038 14.08203125 13.14453125 C15.87004138 15.06021793 15.87004138 15.06021793 18 16 C18 16.66 18 17.32 18 18 C18.56299805 18.23630127 19.12599609 18.47260254 19.70605469 18.71606445 C22.5325491 20.29807106 24.43604599 22.22864009 26.703125 24.54296875 C27.60160156 25.45240234 28.50007813 26.36183594 29.42578125 27.29882812 C30.36756931 28.26134531 31.30897355 29.22423819 32.25 30.1875 C37.68969833 35.73048375 43.10307912 41.18528912 49.0078125 46.23266602 C52.97949607 49.756075 56.65309145 53.591775 60.375 57.375 C61.96383525 58.98925662 63.55486903 60.60135326 65.1484375 62.2109375 C65.84114746 62.91524902 66.53385742 63.61956055 67.24755859 64.34521484 C68.91166413 66.07621474 68.91166413 66.07621474 71 67 C71 67.66 71 68.32 71 69 C71.58104492 69.25434814 72.16208984 69.50869629 72.76074219 69.77075195 C75.24179642 71.13273495 76.85518103 72.6431444 78.828125 74.66796875 C79.90513672 75.76141602 79.90513672 75.76141602 81.00390625 76.87695312 C81.74511719 77.63943359 82.48632812 78.40191406 83.25 79.1875 C88.08065145 84.13398412 92.92377386 88.9383753 98.21582031 93.39404297 C101.12477196 96.01241789 103.52774082 98.97148251 106 102 C98.09594183 101.23536829 90.32053283 99.92691646 82.5 98.5625 C81.23285156 98.34529297 79.96570313 98.12808594 78.66015625 97.90429688 C76.20240433 97.47847409 73.74691005 97.03935588 71.29418945 96.58544922 C69.30152293 96.23130897 67.30007461 95.91841244 65.28979492 95.68408203 C61.99345979 95.22128167 59.81355745 94.81167828 57.41455078 92.41821289 C55.8761973 90.264992 54.58866897 88.06813378 53.3125 85.75 C52.28655979 84.01089001 51.25915724 82.27264204 50.23046875 80.53515625 C49.440354 79.17028076 49.440354 79.17028076 48.63427734 77.77783203 C45.92241593 73.16839684 43.01651298 68.68554322 40.125 64.1875 C38.94190315 62.33124211 37.75961743 60.474467 36.578125 58.6171875 C35.38545793 56.74476538 34.19274951 54.8723696 33 53 C30.62458808 49.27109547 28.24962852 45.54190345 25.875 41.8125 C25.29758057 40.9062085 24.72016113 39.99991699 24.12524414 39.06616211 C21.30364545 34.63415457 18.49138649 30.19671069 15.69921875 25.74609375 C14.65378355 24.08064271 13.60821493 22.41527541 12.5625 20.75 C12.07088379 19.9667334 11.57926758 19.1834668 11.07275391 18.37646484 C7.90942745 13.36380907 4.6305188 8.48515523 1.109375 3.71484375 C0 2 0 2 0 0 Z " fill="#636A6C" transform="translate(215,520)"/>
<path d="M0 0 C11 0 11 0 13.83984375 2.0625 C14.53207031 3.031875 15.22429688 4.00125 15.9375 5 C16.33171143 5.52891846 16.72592285 6.05783691 17.13208008 6.6027832 C17.9890275 7.75895572 18.83058595 8.92665791 19.65820312 10.10400391 C21.0818213 12.11561576 22.55624571 14.08055623 24.046875 16.04296875 C26.06242828 18.69761507 28.06173751 21.36262005 30.04296875 24.04296875 C33.30357596 28.40623837 36.65587268 32.70040774 40 37 C40.33 24.79 40.66 12.58 41 0 C44.63 0 48.26 0 52 0 C52 19.14 52 38.28 52 58 C41 58 41 58 37.9765625 55.53515625 C37.1566815 54.40283592 36.37414022 53.24281484 35.625 52.0625 C34.71951792 50.78070718 33.81323063 49.4994829 32.90625 48.21875 C32.44089844 47.53554688 31.97554687 46.85234375 31.49609375 46.1484375 C28.84804537 42.34575707 25.96687779 38.72112523 23.125 35.0625 C22.06263747 33.6802778 21.0026466 32.29622875 19.9453125 30.91015625 C19.49687988 30.32371338 19.04844727 29.73727051 18.58642578 29.13305664 C16.34646839 26.1212826 14.18163341 23.05428677 12 20 C11.67 32.54 11.34 45.08 11 58 C7.37 58 3.74 58 0 58 C0 38.86 0 19.72 0 0 Z " fill="#F9F9F9" transform="translate(933,388)"/>
<path d="M0 0 C11 0 11 0 13.83984375 2.0625 C14.53207031 3.031875 15.22429688 4.00125 15.9375 5 C16.33171143 5.52891846 16.72592285 6.05783691 17.13208008 6.6027832 C17.9890275 7.75895572 18.83058595 8.92665791 19.65820312 10.10400391 C21.0818213 12.11561576 22.55624571 14.08055623 24.046875 16.04296875 C26.06242828 18.69761507 28.06173751 21.36262005 30.04296875 24.04296875 C33.30357596 28.40623837 36.65587268 32.70040774 40 37 C40.33 24.79 40.66 12.58 41 0 C44.63 0 48.26 0 52 0 C52 19.14 52 38.28 52 58 C41 58 41 58 37.9765625 55.53515625 C37.1566815 54.40283592 36.37414022 53.24281484 35.625 52.0625 C34.71951792 50.78070718 33.81323063 49.4994829 32.90625 48.21875 C32.44089844 47.53554688 31.97554687 46.85234375 31.49609375 46.1484375 C28.84804537 42.34575707 25.96687779 38.72112523 23.125 35.0625 C22.06263747 33.6802778 21.0026466 32.29622875 19.9453125 30.91015625 C19.49687988 30.32371338 19.04844727 29.73727051 18.58642578 29.13305664 C16.34646839 26.1212826 14.18163341 23.05428677 12 20 C11.67 32.54 11.34 45.08 11 58 C7.37 58 3.74 58 0 58 C0 38.86 0 19.72 0 0 Z " fill="#F9F9F9" transform="translate(846,388)"/>
<path d="M0 0 C11 0 11 0 13.83984375 2.0625 C14.53207031 3.031875 15.22429687 4.00125 15.9375 5 C16.33171143 5.52891846 16.72592285 6.05783691 17.13208008 6.6027832 C17.9890275 7.75895572 18.83058595 8.92665791 19.65820312 10.10400391 C21.0818213 12.11561576 22.55624571 14.08055623 24.046875 16.04296875 C26.06242828 18.69761507 28.06173751 21.36262005 30.04296875 24.04296875 C33.30357596 28.40623837 36.65587268 32.70040774 40 37 C40.33 24.79 40.66 12.58 41 0 C44.63 0 48.26 0 52 0 C52 19.14 52 38.28 52 58 C41 58 41 58 37.9765625 55.53515625 C37.1566815 54.40283592 36.37414022 53.24281484 35.625 52.0625 C34.71951792 50.78070718 33.81323063 49.4994829 32.90625 48.21875 C32.44089844 47.53554688 31.97554687 46.85234375 31.49609375 46.1484375 C28.84804537 42.34575707 25.96687779 38.72112523 23.125 35.0625 C22.06263747 33.6802778 21.0026466 32.29622875 19.9453125 30.91015625 C19.49687988 30.32371338 19.04844727 29.73727051 18.58642578 29.13305664 C16.34646839 26.1212826 14.18163341 23.05428677 12 20 C11.67 32.54 11.34 45.08 11 58 C7.37 58 3.74 58 0 58 C0 38.86 0 19.72 0 0 Z " fill="#F9F9F9" transform="translate(165,388)"/>
<path d="M0 0 C15.18 0 30.36 0 46 0 C46 17.77777778 46 17.77777778 39.26171875 24.765625 C38.51535156 25.50296875 37.76898437 26.2403125 37 27 C34.44466606 29.73267992 34.44466606 29.73267992 33.984375 33.3203125 C35.4104863 37.08305232 37.69531698 39.80004211 40.25 42.875 C51 56.05896226 51 56.05896226 51 59 C46.49750777 59.68894394 42.48612564 59.88301568 38 59 C34.13358465 55.93808722 31.72906443 52.0694883 29 48 C28.08730002 46.82926265 27.16241565 45.66793835 26.2265625 44.515625 C25.76209717 43.94030029 25.29763184 43.36497559 24.8190918 42.7722168 C23.91393254 41.65208422 23.00661917 40.53368814 22.09692383 39.41723633 C19.6054056 36.22704102 19 35.21179148 19 31 C20.68305472 28.59149066 22.37448566 26.37275382 24.25 24.125 C25.2364976 22.92100687 26.22090033 21.71529403 27.203125 20.5078125 C27.86296387 19.71334717 27.86296387 19.71334717 28.53613281 18.90283203 C30.48890548 16.36448811 32.22352891 13.66470663 34 11 C26.41 11 18.82 11 11 11 C11 26.84 11 42.68 11 59 C7.37 59 3.74 59 0 59 C0 39.53 0 20.06 0 0 Z " fill="#F9F9F9" transform="translate(491,388)"/>
<path d="M0 0 C3.125 2.25 3.125 2.25 5 4 C3.47291037 7.43595166 1.40072955 10.11912454 -1 13 C-2.99293335 12.01899955 -4.96020498 11.02248213 -6.89453125 9.9296875 C-11.43846896 7.43098448 -14.70718264 6.25714844 -20 7 C-24.9255491 8.49106759 -28.20931458 10.03141036 -31.5 14.0625 C-34.49467306 19.92706808 -35.15883196 25.90220264 -33.3515625 32.29296875 C-31.46380796 36.59285409 -29.24659387 39.28260014 -24.9765625 41.30859375 C-18.05845746 43.7285633 -12.85782504 43.24646574 -6.171875 40.24609375 C-2.17159171 37.95096719 -0.42925709 35.28777127 1 31 C-4.28 30.67 -9.56 30.34 -15 30 C-14.34 28.68 -13.68 27.36 -13 26 C-12.54109375 24.93523437 -12.0821875 23.87046875 -11.609375 22.7734375 C-8.55110576 19.52288187 -7.86337015 19.56903653 -3.578125 19.4140625 C-1.46795403 19.45387705 0.64180774 19.52534 2.75 19.625 C3.82894531 19.65207031 4.90789062 19.67914063 6.01953125 19.70703125 C8.68171065 19.77770858 11.33984236 19.87631599 14 20 C14.20737785 29.48177598 12.875804 36.56430099 6.80859375 44.14453125 C1.62869261 49.45868469 -5.00604137 53.61144746 -12.453125 54.3359375 C-23.42699422 54.44883739 -31.05404612 52.76115618 -39.203125 45.01953125 C-45.59953738 37.83051994 -46.99755746 30.24182203 -46.47265625 20.84375 C-45.37377865 11.90742307 -41.20889643 6.23150202 -34.3046875 0.62890625 C-24.18226481 -6.52541623 -10.65098965 -5.959722 0 0 Z " fill="#F7F7F7" transform="translate(1041,392)"/>
<path d="M0 0 C11 0 11 0 13.9453125 2.203125 C14.66460938 3.20859375 15.38390625 4.2140625 16.125 5.25 C16.52912109 5.79213135 16.93324219 6.3342627 17.34960938 6.89282227 C18.18593202 8.0212381 19.00730139 9.16088757 19.81347656 10.31103516 C21.63729865 12.9071671 23.57879623 15.41297084 25.5 17.9375 C26.23734375 18.93265625 26.9746875 19.9278125 27.734375 20.953125 C30.04183876 24.05626592 32.3885703 27.12525891 34.75 30.1875 C35.15283203 30.71069824 35.55566406 31.23389648 35.97070312 31.77294922 C37.87022132 34.23982737 39.77170966 36.70513605 41.67773438 39.16699219 C43.45485361 41.46317101 45.22761481 43.76266593 47 46.0625 C47.56428711 46.78912842 48.12857422 47.51575684 48.70996094 48.2644043 C49.23879883 48.95187744 49.76763672 49.63935059 50.3125 50.34765625 C50.78300781 50.95617432 51.25351562 51.56469238 51.73828125 52.19165039 C53.03903121 54.05594121 54.03484196 55.9447911 55 58 C50.08036654 58.90492528 45.89079823 59.16542443 41 58 C36.77160919 54.73183165 33.89677508 50.104657 31.05322266 45.64257812 C29.79820942 43.68529276 28.42414128 41.83700309 27 40 C23.00070396 41.33309868 22.01651745 43.35658633 19.5625 46.75 C18.04461702 48.83548389 16.523864 50.91888244 15 53 C14.47277344 53.95390625 13.94554687 54.9078125 13.40234375 55.890625 C11 58 11 58 0 58 C0 38.86 0 19.72 0 0 Z " fill="#FAFAFA" transform="translate(736,388)"/>
<path d="M0 0 C9.43668046 -0.97089931 9.43668046 -0.97089931 12.82324219 1.13232422 C14.36171855 2.8142717 15.61734983 4.53638993 16.875 6.4375 C17.35839844 7.10185059 17.84179688 7.76620117 18.33984375 8.45068359 C19.37377182 9.8723347 20.39396339 11.30406071 21.40136719 12.74462891 C23.60880776 15.85891358 25.94006385 18.87078599 28.27392578 21.89086914 C30.38065453 24.61769726 32.46242376 27.36303425 34.54296875 30.10986328 C36.33166947 32.43025888 38.16977293 34.71221616 40 37 C40.33 24.79 40.66 12.58 41 0 C44.63 0 48.26 0 52 0 C52 19.14 52 38.28 52 58 C41 58 41 58 38.37890625 56.15625 C37.77949219 55.2796875 37.18007813 54.403125 36.5625 53.5 C35.84320312 52.50097656 35.12390625 51.50195312 34.3828125 50.47265625 C34.00543945 49.91852051 33.62806641 49.36438477 33.23925781 48.79345703 C31.4050589 46.13899973 29.4494763 43.58025898 27.50268555 41.0078125 C25.95390734 38.95920243 24.41952195 36.90042262 22.88671875 34.83984375 C19.36849417 30.13373798 15.70554525 25.56067108 12 21 C11.67 27.6 11.34 34.2 11 41 C5.65709127 38.32854563 2.67317884 35.37068389 0 30 C-0.827436 24.77730447 -0.66788502 19.6928866 -0.4375 14.4375 C-0.40231753 13.0332815 -0.37039076 11.62897748 -0.34179688 10.22460938 C-0.25975934 6.81419185 -0.14499691 3.408224 0 0 Z " fill="#F9F9F9" transform="translate(782,388)"/>
<path d="M0 0 C12.54 0 25.08 0 38 0 C38 3.63 38 7.26 38 11 C29.09 11 20.18 11 11 11 C11 14.96 11 18.92 11 23 C18.26 23 25.52 23 33 23 C33 26.63 33 30.26 33 34 C25.74 34 18.48 34 11 34 C11 38.29 11 42.58 11 47 C20.57 47 30.14 47 40 47 C38.07805714 51.80485716 36.70327098 54.46858408 33 58 C30.13889865 58.54180905 28.1279649 58.71261709 25.29296875 58.5859375 C24.64928345 58.57989502 24.00559814 58.57385254 23.34240723 58.56762695 C20.95677798 58.53642756 18.57206908 58.45265684 16.1875 58.375 C8.1746875 58.189375 8.1746875 58.189375 0 58 C0 38.86 0 19.72 0 0 Z " fill="#FCFCFC" transform="translate(229,388)"/>
<path d="M0 0 C3.0625 2.4375 3.0625 2.4375 5 5 C5.70125 5.78375 6.4025 6.5675 7.125 7.375 C12.67561319 15.14585846 13.16320034 22.56091529 12 32 C9.10959867 40.9991928 4.53064226 46.85282117 -3.57421875 51.46484375 C-11.3598495 55.38480568 -17.34654857 56.25646287 -25.6875 53.75 C-31.88451811 51.44363152 -36.59257731 47.92594301 -41 43 C-41 42.34 -41 41.68 -41 41 C-35.3723657 38.58815673 -31.13658025 37.1817893 -25 38 C-23 40.25 -23 40.25 -21 43 C-18.43827448 44.57439381 -15.7414449 45.77384594 -13 47 C-11.66389474 47.66109375 -10.32975247 48.32621917 -9 49 C-4.46424067 46.33770648 -2.85455784 44.80003206 -1 40 C0.17197909 38.79717935 1.3617061 37.61155558 2.5625 36.4375 C7.09614652 31.53702316 7.07511711 26.43860982 7 20 C6.62488281 20.60328125 6.24976563 21.2065625 5.86328125 21.828125 C0.50141212 30.2018249 0.50141212 30.2018249 -4 33 C-4.99 33 -5.98 33 -7 33 C-7 30.36 -7 27.72 -7 25 C-7.5775 25.350625 -8.155 25.70125 -8.75 26.0625 C-11 27 -11 27 -13.03125 26.83203125 C-15 26 -15 26 -16.046875 24.0390625 C-16.27890625 23.24242187 -16.5109375 22.44578125 -16.75 21.625 C-16.99234375 20.83351563 -17.2346875 20.04203125 -17.484375 19.2265625 C-18 17 -18 17 -18 14 C-14.535 13.505 -14.535 13.505 -11 13 C-11 12.01 -11 11.02 -11 10 C-13.31 10.33 -15.62 10.66 -18 11 C-18.33 10.34 -18.66 9.68 -19 9 C-21.02543556 8.74280183 -23.05350224 8.49157878 -25.08984375 8.34375 C-27 8 -27 8 -29 6 C-31.20250992 5.53993654 -31.20250992 5.53993654 -33.625 5.375 C-34.44226563 5.30023438 -35.25953125 5.22546875 -36.1015625 5.1484375 C-36.72804688 5.09945313 -37.35453125 5.05046875 -38 5 C-29.603928 -8.14167792 -12.37333121 -5.33751542 0 0 Z " fill="#F5F5F5" transform="translate(468,392)"/>
<path d="M0 0 C2.14186363 1.3485808 4.2690332 2.72102213 6.375 4.125 C6.02447365 7.27973719 5.50980924 8.9483534 3.5625 11.5 C1.375 13.125 1.375 13.125 -0.5625 13.0625 C-2.625 12.125 -2.625 12.125 -4.875 10.5625 C-8.79202699 8.51496317 -11.21733125 8.70522202 -15.625 9.125 C-18.20451684 10.05743871 -18.20451684 10.05743871 -19.625 12.125 C-20.12510524 15.16730823 -20.12510524 15.16730823 -19.625 18.125 C-16.75211552 20.99788448 -13.35466122 21.11238277 -9.5 21.875 C-1.32927771 23.63117972 4.59115509 25.94923264 9.375 33.125 C10.06072317 38.65065296 10.12317537 43.57322887 7.6875 48.625 C3.18693701 53.49047351 -0.93832543 56.76152504 -7.67578125 57.42578125 C-17.72823746 57.46189786 -24.137654 56.05079505 -31.625 49.125 C-30.0972133 45.68747993 -28.12318944 42.93546312 -25.625 40.125 C-24.965 40.125 -24.305 40.125 -23.625 40.125 C-23.0475 40.74375 -22.47 41.3625 -21.875 42 C-18.63704249 45.05807099 -15.78562482 46.125 -11.30859375 46.125 C-7.92250943 45.86983613 -7.92250943 45.86983613 -4.625 45.125 C-2.25807034 42.27673402 -2.25807034 42.27673402 -3 38.9375 C-3.20625 38.009375 -3.4125 37.08125 -3.625 36.125 C-4.69878906 35.88265625 -5.77257812 35.6403125 -6.87890625 35.390625 C-8.3152409 35.05266391 -9.75143129 34.71408935 -11.1875 34.375 C-12.24420898 34.13910156 -12.24420898 34.13910156 -13.32226562 33.8984375 C-21.25488788 31.99753263 -26.80464672 28.78842953 -31.625 22.125 C-33.31816536 17.04550393 -33.20020786 13.408156 -31 8.5 C-24.39946676 -1.87893036 -11.14309949 -5.54053926 0 0 Z " fill="#F7F7F7" transform="translate(658.625,389.875)"/>
<path d="M0 0 C3.125 2.3125 3.125 2.3125 5 4 C4.66785849 7.09998746 3.9454988 8.0545012 1.6875 10.3125 C-1 12 -1 12 -2.9375 12 C-5 11 -5 11 -7.6875 9 C-12.39696912 6.15654695 -16.74774922 5.34139008 -22.1796875 6.44140625 C-26.82261574 7.97444859 -29.88353028 10.15024329 -33 14 C-35.66676422 19.54083873 -35.77554885 24.96351155 -35 31 C-33.31224206 35.13609349 -30.89988496 37.38644207 -27.25 39.875 C-20.59262119 42.17947728 -15.32293061 42.64463868 -8.7265625 39.984375 C-6.90400368 39.04639966 -6.90400368 39.04639966 -5.390625 37.38671875 C-4.93171875 36.92910156 -4.4728125 36.47148437 -4 36 C-0.16661877 36.12777937 2.19976996 38.5886908 5 41 C4.64268208 43.751348 4.24411236 44.78917569 2.109375 46.6328125 C1.33078125 47.12523437 0.5521875 47.61765625 -0.25 48.125 C-1.01828125 48.62257813 -1.7865625 49.12015625 -2.578125 49.6328125 C-10.27160413 53.97590556 -19.13712817 54.4169314 -27.69921875 52.34765625 C-35.86132403 49.02868499 -42.52884843 43.06795673 -46.1484375 35.00390625 C-48.37991445 27.13232014 -48.40407397 18.04473844 -45.0625 10.5 C-41.13448332 3.92001725 -34.90431437 -2.31908843 -27.421875 -4.59375 C-17.2993315 -6.29172504 -8.59465683 -5.83444973 0 0 Z " fill="#F6F6F6" transform="translate(722,393)"/>
<path d="M0 0 C5.4257525 -0.22338414 10.84880256 -0.38619359 16.27807617 -0.49438477 C18.12230062 -0.53949995 19.96620569 -0.60081372 21.80932617 -0.67895508 C37.13269171 -1.3120836 37.13269171 -1.3120836 41.80810547 1.97314453 C44.06737216 4.81416243 46 7.27641476 46 11 C39.73 11 33.46 11 27 11 C27 26.84 27 42.68 27 59 C23.37 59 19.74 59 16 59 C16 43.16 16 27.32 16 11 C10.72 11 5.44 11 0 11 C0 7.37 0 3.74 0 0 Z " fill="#F9F9F9" transform="translate(273,388)"/>
<path d="M0 0 C1.84464844 0.13921875 1.84464844 0.13921875 3.7265625 0.28125 C4.97179687 0.3534375 6.21703125 0.425625 7.5 0.5 C8.91152344 0.63921875 8.91152344 0.63921875 10.3515625 0.78125 C8.99855361 3.67917538 7.44856898 6.12083765 5.48828125 8.64453125 C4.93076172 9.36705078 4.37324219 10.08957031 3.79882812 10.83398438 C3.21810547 11.57970703 2.63738281 12.32542969 2.0390625 13.09375 C0.33786562 15.28815911 -1.35994131 17.48434685 -3.04150391 19.69384766 C-4.08668074 21.0515295 -5.15579636 22.39122423 -6.25146484 23.70849609 C-7.89016806 25.6779864 -7.89016806 25.6779864 -9.6484375 28.78125 C-9.01526287 33.5677487 -4.91414368 37.45304832 -1.8984375 41.09375 C-0.8143664 42.42648356 0.26897428 43.75981161 1.3515625 45.09375 C1.86976563 45.72925781 2.38796875 46.36476563 2.921875 47.01953125 C10.3515625 56.17469262 10.3515625 56.17469262 10.3515625 58.78125 C5.63838537 59.78524039 0.95610884 60.48742524 -3.6484375 58.78125 C-8.19871119 55.08652733 -11.17808938 49.80962801 -14.265625 44.90234375 C-16.29843088 41.78422625 -18.62741404 38.92676177 -20.9609375 36.03125 C-23.19921875 33.234375 -23.19921875 33.234375 -24.6484375 30.78125 C-24.24740614 27.39553622 -22.79186024 25.36313751 -20.69921875 22.734375 C-20.09787109 21.97125 -19.49652344 21.208125 -18.87695312 20.421875 C-18.24466797 19.63296875 -17.61238281 18.8440625 -16.9609375 18.03125 C-15.72720066 16.47448427 -14.4941226 14.9171962 -13.26171875 13.359375 C-12.34567871 12.22242188 -12.34567871 12.22242188 -11.41113281 11.0625 C-9.62625775 8.81353645 -9.62625775 8.81353645 -8.11230469 6.4375 C-4.4823723 0.95982276 -4.4823723 0.95982276 0 0 Z " fill="#F7F8F8" transform="translate(587.6484375,387.21875)"/>
<path d="M0 0 C3.63 0 7.26 0 11 0 C11 19.14 11 38.28 11 58 C7.37 58 3.74 58 0 58 C0 38.86 0 19.72 0 0 Z " fill="#FAFAFA" transform="translate(910,388)"/>
<path d="M0 0 C3.63 0 7.26 0 11 0 C11 19.14 11 38.28 11 58 C7.37 58 3.74 58 0 58 C0 38.86 0 19.72 0 0 Z " fill="#FAFAFA" transform="translate(549,388)"/>
<path d="M0 0 C2 2.25 2 2.25 4 5 C6.56172552 6.57439381 9.2585551 7.77384594 12 9 C13.33626795 9.66076485 14.67000823 10.32669167 16 11 C16.66 11.33 17.32 11.66 18 12 C17 15 17 15 15.19921875 16.16796875 C8.47542524 18.71178406 1.34126397 16.80502036 -5 14 C-9.28523709 11.52774783 -12.69905116 8.68929577 -16 5 C-16 4.34 -16 3.68 -16 3 C-10.3723657 0.58815673 -6.13658025 -0.8182107 0 0 Z " fill="#ECECEC" transform="translate(443,430)"/>
<path d="M0 0 C5.625 5.625 5.625 5.625 8 9 C6.23867546 13.00301032 3.73867517 16.6028977 1 20 C0.67 20 0.34 20 0 20 C0 13.4 0 6.8 0 0 Z " fill="#0B1D24" transform="translate(747,407)"/>
<path d="M0 0 C3 1 3 1 4.16796875 3.08203125 C8.03218311 13.43101914 8.4761406 22.07352283 3.875 32.234375 C3.441875 33.10835938 3.441875 33.10835938 3 34 C2.34 34 1.68 34 1 34 C1.495 32.824375 1.99 31.64875 2.5 30.4375 C5.65829061 20.8568481 5.13552113 10.75814409 0.875 1.66015625 C0.58625 1.11230469 0.2975 0.56445312 0 0 Z " fill="#474849" transform="translate(475,399)"/>
<path d="M0 0 C0.66 0.66 1.32 1.32 2 2 C1.67 2.33 1.34 2.66 1 3 C2.299375 3.12375 3.59875 3.2475 4.9375 3.375 C7.15234375 3.5859375 7.15234375 3.5859375 9 4 C9.33 4.66 9.66 5.32 10 6 C5.71 5.67 1.42 5.34 -3 5 C-3.66 6.65 -4.32 8.3 -5 10 C-5.97236487 11.6829392 -6.96564444 13.35443434 -8 15 C-8.33 14.34 -8.66 13.68 -9 13 C-7.890625 10.72265625 -7.890625 10.72265625 -6.25 8.0625 C-5.71890625 7.18722656 -5.1878125 6.31195313 -4.640625 5.41015625 C-3.22618343 3.33227422 -1.84827676 1.6868309 0 0 Z " fill="#232829" transform="translate(430,393)"/>
<path d="M0 0 C5.28 0 10.56 0 16 0 C16.33 0.99 16.66 1.98 17 3 C11.39 2.67 5.78 2.34 0 2 C0 1.34 0 0.68 0 0 Z " fill="#3D3F41" transform="translate(443,386)"/>
<path d="M0 0 C0.33 0.66 0.66 1.32 1 2 C3.31 1.34 5.62 0.68 8 0 C8.33 0.66 8.66 1.32 9 2 C8.67 2.66 8.34 3.32 8 4 C5.67843403 4.40729228 3.3431213 4.74438677 1 5 C0.67 3.35 0.34 1.7 0 0 Z " fill="#3C3C3C" transform="translate(449,401)"/>
<path d="M0 0 C1.06671952 3.20015856 0.94845472 4.88544294 0.5625 8.1875 C0.46066406 9.08855469 0.35882813 9.98960937 0.25390625 10.91796875 C0.17011719 11.60503906 0.08632813 12.29210937 0 13 C-0.33 13 -0.66 13 -1 13 C-1 10.69 -1 8.38 -1 6 C-1.66 6 -2.32 6 -3 6 C-1.125 1.125 -1.125 1.125 0 0 Z " fill="#4B4B4B" transform="translate(475,411)"/>
<path d="M0 0 C0.66 0.33 1.32 0.66 2 1 C2 1.66 2 2.32 2 3 C2.33 3.66 2.66 4.32 3 5 C0.69 5 -1.62 5 -4 5 C-2.68 3.35 -1.36 1.7 0 0 Z " fill="#CECECE" transform="translate(434,392)"/>
</svg>
